<svg width="110" height="109" viewBox="0 0 110 109" fill="none" xmlns="http://www.w3.org/2000/svg">
<path d="M22.1878 94.188H69.0628C69.7894 94.188 70.5003 94.0786 71.1917 93.9145C72.2855 94.0786 73.3948 94.188 74.5315 94.188C87.0235 94.188 97.1875 84.024 97.1875 71.532C97.1875 60.376 89.0703 51.094 78.4375 49.235V31.157C78.4375 28.6843 77.4375 26.2703 75.6953 24.5242L63.7263 12.5552C61.9841 10.813 59.5661 9.81299 57.0935 9.81299H22.1875C17.0156 9.81299 12.8125 14.0161 12.8125 19.188V84.813C12.8125 89.9849 17.0159 94.188 22.1878 94.188ZM90.9378 71.532C90.9378 80.5789 83.5784 87.938 74.5318 87.938C65.4852 87.938 58.1258 80.5786 58.1258 71.532C58.1258 62.4854 65.4852 55.126 74.5318 55.126C83.5784 55.126 90.9378 62.4854 90.9378 71.532ZM62.8128 52.18C61.8675 52.7542 60.9534 53.3753 60.1019 54.0784H48.7499V48.8753H62.8119L62.8128 52.18ZM42.5008 54.0784H28.4388V48.8753H42.5008V54.0784ZM28.4388 60.3284H42.5008V65.5472H28.4388V60.3284ZM28.4388 71.7974H42.5008V77.0005H28.4388V71.7974ZM48.7508 71.7974H51.8914C51.9109 73.5904 52.157 75.3286 52.5711 77.0005H48.7508L48.7508 71.7974ZM52.7039 65.5474H48.7508V60.3286H54.8641C53.9344 61.9536 53.2079 63.7036 52.7039 65.5474ZM69.3329 27.0004H61.2509V18.9184L69.3329 27.0004ZM19.0629 19.1879C19.0629 17.4652 20.4652 16.0629 22.1879 16.0629H54.9999V30.1249C54.9999 31.8515 56.3983 33.2499 58.1249 33.2499H72.1869V48.9959C71.1166 49.1053 70.0814 49.3162 69.0619 49.5701V48.8748C69.0619 45.4295 66.2572 42.6248 62.8119 42.6248H28.4369C24.9916 42.6248 22.1869 45.4295 22.1869 48.8748V76.9998C22.1869 80.4451 24.9916 83.2498 28.4369 83.2498H55.1789C56.2297 84.9764 57.4953 86.5545 58.9523 87.9373H22.1863C20.4636 87.9373 19.0613 86.535 19.0613 84.8123L19.0629 19.1879Z" fill="#A59EBB"/>
<path d="M66.07 79.992C66.6793 80.6014 67.4802 80.9061 68.2809 80.9061C69.0816 80.9061 69.8825 80.6014 70.4918 79.992L82.9918 67.492C84.2106 66.2732 84.2106 64.2928 82.9918 63.074C81.773 61.8552 79.7926 61.8552 78.5738 63.074L66.0738 75.574C64.855 76.7928 64.855 78.7732 66.0738 79.992H66.07Z" fill="#7956F5"/>
<path d="M70.625 64.5C70.625 68.668 64.375 68.668 64.375 64.5C64.375 60.332 70.625 60.332 70.625 64.5Z" fill="#7956F5"/>
<path d="M84.688 78.562C84.688 82.73 78.438 82.73 78.438 78.562C78.438 74.394 84.688 74.394 84.688 78.562Z" fill="#7956F5"/>
</svg>
