<svg width="70" height="84" viewBox="0 0 70 84" fill="none" xmlns="http://www.w3.org/2000/svg">
<path d="M2.875 50C1.28653 50 0 51.2968 0 52.8979V74.8209C0 76.422 1.28653 77.7188 2.875 77.7188H12.7724C13.9296 77.7188 14.9214 77.0269 15.3742 76.0308H22.1952L36.4838 83.1089C37.6589 83.703 38.9419 84 40.232 84C41.2957 84 42.3631 83.7971 43.373 83.3878L64.7842 74.7158C68.0509 73.39 69.7328 69.9343 68.6942 66.6741C67.6377 63.356 64.1768 61.4071 60.6442 62.1461L48.0337 64.7723C48.0122 64.6782 47.9834 64.584 47.9547 64.4862C47.4084 62.617 46.0679 61.0304 44.2818 60.1285L32.3577 54.1189C31.1106 53.4886 29.8708 53.3908 28.6777 53.3763H15.6431V52.9018C15.6431 51.3007 14.3566 50.0039 12.7681 50.0039H2.87074L2.875 50ZM5.75001 55.7958H9.89719V71.923H5.75001V55.7958ZM28.6461 59.1682C28.8941 59.1718 29.5517 59.1791 29.7889 59.2986L41.713 65.3082C42.0868 65.4965 42.3456 65.7863 42.4462 66.1196C42.5252 66.3913 42.4893 66.6593 42.342 66.9165L42.3348 66.9274C41.9107 67.6446 40.8074 67.9054 39.9701 67.4852L26.9282 60.9106C25.5086 60.1934 23.78 60.7766 23.0685 62.2074C22.3569 63.6383 22.9355 65.3807 24.355 66.0978L37.3969 72.6688C40.5271 74.2481 44.2538 73.4947 46.4568 71.0133L61.8098 67.8148C62.489 67.6735 63.0892 68.0249 63.2222 68.4415C63.3444 68.8254 63.0246 69.1804 62.6436 69.3326L41.2324 78.0046C40.5352 78.2871 39.7231 78.2545 39.0402 77.9104L24.1335 70.528C23.7381 70.3324 23.3069 70.231 22.8649 70.231H15.6486V59.1605H28.6473L28.6461 59.1682Z" fill="#A59EBB"/>
<path d="M69.5 26.594C69.5 12.379 57.934 0.812988 43.719 0.812988C29.504 0.812988 17.938 12.379 17.938 26.594C17.938 40.809 29.504 52.375 43.719 52.375C57.934 52.375 69.5 40.809 69.5 26.594ZM24.188 26.594C24.188 15.824 32.9497 7.06299 43.719 7.06299C54.4883 7.06299 63.25 15.8247 63.25 26.594C63.25 37.3633 54.4883 46.125 43.719 46.125C32.9497 46.125 24.188 37.3633 24.188 26.594Z" fill="#7956F5"/>
<path d="M43.7187 41.918C45.4453 41.918 46.8437 40.5196 46.8437 38.793V38.707C50.3437 37.9805 52.9804 34.8789 52.9804 31.1679C52.9804 26.9218 49.5273 23.4687 45.2812 23.4687H42.1601C41.3594 23.4687 40.7109 22.8203 40.7109 22.0195C40.7109 21.2188 41.3594 20.5703 42.1601 20.5703H48.332C50.0586 20.5703 51.457 19.1719 51.457 17.4453C51.457 15.7187 50.0586 14.3203 48.332 14.3203H46.8398C46.8008 12.6289 45.4218 11.2695 43.7226 11.2695C41.996 11.2695 40.5976 12.6679 40.5976 14.3945V14.4805C37.0976 15.207 34.4609 18.3086 34.4609 22.0196C34.4609 26.2657 37.914 29.7188 42.1601 29.7188H45.2812C46.082 29.7188 46.7304 30.3672 46.7304 31.168C46.7304 31.9687 46.082 32.6172 45.2812 32.6172H39.1093C37.3827 32.6172 35.9843 34.0156 35.9843 35.7422C35.9843 37.4688 37.3827 38.8672 39.1093 38.8672H40.6015C40.6406 40.5586 42.0195 41.918 43.7187 41.918Z" fill="#7956F5"/>
</svg>
