<svg width="70" height="85" viewBox="0 0 70 85" fill="none" xmlns="http://www.w3.org/2000/svg">
<path d="M10.188 17.0591C10.3716 18.6372 11.0083 20.1568 12.0864 21.4107L34.5164 47.4847C35.8211 49.0003 37.7156 49.8714 39.7195 49.8714C41.7195 49.8714 43.614 49.0003 44.9187 47.4847L67.3487 21.4107C69.4464 18.9693 69.9034 15.5201 68.5128 12.6216L65.0519 5.41069C63.7121 2.61769 60.8449 0.812988 57.7472 0.812988H21.7002C18.6025 0.812988 15.7354 2.61769 14.3955 5.41069L10.9346 12.6216C10.376 13.7857 10.1299 15.0396 10.1533 16.2818C10.1494 16.3365 10.1377 16.3833 10.1377 16.438C10.1377 16.649 10.1611 16.8599 10.2002 17.0591L10.188 17.0591ZM27.825 19.563L33.5008 36.723L18.7428 19.563H27.8287H27.825ZM60.688 19.563L45.93 36.723L51.6058 19.563H60.6917H60.688ZM45.016 19.563L39.7113 35.606L34.4066 19.563H45.0196H45.016ZM34 13.313L35.0391 7.06299H44.3829L45.422 13.313H34ZM59.406 8.11379L61.8982 13.313H51.7572L50.7181 7.06299H57.7337C58.4446 7.06299 59.0974 7.47705 59.406 8.11379ZM21.687 7.06299H28.7026L27.6635 13.313H17.5225L20.0147 8.11379C20.3233 7.47317 20.976 7.06299 21.687 7.06299Z" fill="#7956F5"/>
<path d="M2.875 51C1.28653 51 0 52.2968 0 53.8979V75.8209C0 77.422 1.28653 78.7188 2.875 78.7188H12.7724C13.9296 78.7188 14.9214 78.0269 15.3742 77.0308H22.1952L36.4838 84.1089C37.6589 84.703 38.9419 85 40.232 85C41.2957 85 42.3631 84.7971 43.373 84.3878L64.7842 75.7158C68.0509 74.39 69.7328 70.9343 68.6942 67.6741C67.6377 64.356 64.1768 62.4071 60.6442 63.1461L48.0337 65.7723C48.0122 65.6782 47.9834 65.584 47.9547 65.4862C47.4084 63.617 46.0679 62.0304 44.2818 61.1285L32.3577 55.1189C31.1106 54.4886 29.8708 54.3908 28.6777 54.3763H15.6431V53.9018C15.6431 52.3007 14.3566 51.0039 12.7681 51.0039H2.87074L2.875 51ZM5.75001 56.7958H9.89719V72.923H5.75001V56.7958ZM28.6461 60.1682C28.8941 60.1718 29.5517 60.1791 29.7889 60.2986L41.713 66.3082C42.0868 66.4965 42.3456 66.7863 42.4462 67.1196C42.5252 67.3913 42.4893 67.6593 42.342 67.9165L42.3348 67.9274C41.9107 68.6446 40.8074 68.9054 39.9701 68.4852L26.9282 61.9106C25.5086 61.1934 23.78 61.7766 23.0685 63.2074C22.3569 64.6383 22.9355 66.3807 24.355 67.0978L37.3969 73.6688C40.5271 75.2481 44.2538 74.4947 46.4568 72.0133L61.8098 68.8148C62.489 68.6735 63.0892 69.0249 63.2222 69.4415C63.3444 69.8254 63.0246 70.1804 62.6436 70.3326L41.2324 79.0046C40.5352 79.2871 39.7231 79.2545 39.0402 78.9104L24.1335 71.528C23.7381 71.3324 23.3069 71.231 22.8649 71.231H15.6486V60.1605H28.6473L28.6461 60.1682Z" fill="#A59EBB"/>
</svg>
