<svg width="110" height="94" viewBox="0 0 110 94" fill="none" xmlns="http://www.w3.org/2000/svg">
<path d="M23.7499 90.188C29.7811 90.188 34.6879 85.2818 34.6879 79.25C34.6879 74.3047 31.3871 70.1211 26.8754 68.773V66.7496C26.8754 65.8902 27.5786 65.1871 28.4379 65.1871H51.8759V68.773C47.3642 70.1207 44.0634 74.3042 44.0634 79.25C44.0634 85.2812 48.9696 90.188 55.0014 90.188C61.0332 90.188 65.9394 85.2818 65.9394 79.25C65.9394 74.3047 62.6386 70.1211 58.1269 68.773V65.1871H81.5649C82.4243 65.1871 83.1274 65.8902 83.1274 66.7496V68.773C78.6157 70.1207 75.3149 74.3042 75.3149 79.25C75.3149 85.2812 80.2211 90.188 86.2529 90.188C92.2847 90.188 97.1909 85.2818 97.1909 79.25C97.1909 74.3047 93.8901 70.1211 89.3784 68.773V66.7496C89.3784 62.441 85.8745 58.9371 81.5659 58.9371H58.1279V55.5933C70.4399 54.0464 80.0029 43.5343 80.0029 30.8123C80.0029 17.0273 68.7879 5.81226 55.0029 5.81226C41.2179 5.81226 30.0029 17.0273 30.0029 30.8123C30.0029 43.5393 39.5654 54.0503 51.8779 55.5933V58.9371H28.4399C24.1313 58.9371 20.6274 62.441 20.6274 66.7496V68.773C16.1157 70.1207 12.8149 74.3042 12.8149 79.25C12.8149 85.2812 17.7211 90.188 23.7529 90.188H23.7499ZM59.6879 79.25C59.6879 81.8359 57.5863 83.9375 55.0004 83.9375C52.4145 83.9375 50.3129 81.8359 50.3129 79.25C50.3129 76.6641 52.4145 74.5625 55.0004 74.5625C57.5863 74.5625 59.6879 76.6641 59.6879 79.25ZM90.9379 79.25C90.9379 81.8359 88.8363 83.9375 86.2504 83.9375C83.6645 83.9375 81.5629 81.8359 81.5629 79.25C81.5629 76.6641 83.6645 74.5625 86.2504 74.5625C88.8363 74.5625 90.9379 76.6641 90.9379 79.25ZM36.2499 30.812C36.2499 20.472 44.6601 12.062 54.9999 12.062C65.3397 12.062 73.7499 20.4722 73.7499 30.812C73.7499 41.1518 65.3397 49.562 54.9999 49.562C44.6601 49.562 36.2499 41.1518 36.2499 30.812ZM23.7499 74.562C26.3358 74.562 28.4374 76.6636 28.4374 79.2495C28.4374 81.8354 26.3358 83.937 23.7499 83.937C21.164 83.937 19.0624 81.8354 19.0624 79.2495C19.0624 76.6636 21.164 74.562 23.7499 74.562Z" fill="#A59EBB"/>
<path d="M55 45.6561C56.7227 45.6561 58.1211 44.2617 58.125 42.5389C61.4922 41.7929 64.0195 38.7967 64.0195 35.2069C64.0195 31.0585 60.6445 27.6875 56.5 27.6875H53.5C52.8007 27.6875 52.2305 27.1171 52.2305 26.418C52.2305 25.7188 52.8008 25.1485 53.5 25.1485H59.4297C61.1563 25.1485 62.5547 23.7501 62.5547 22.0235C62.5547 20.2969 61.1563 18.8985 59.4297 18.8985H58.1055C58.0039 17.2657 56.6602 15.9688 55 15.9688C53.2773 15.9688 51.8789 17.3633 51.875 19.086C48.5078 19.832 45.9805 22.8282 45.9805 26.418C45.9805 30.5664 49.3555 33.9375 53.5 33.9375H56.5C57.1992 33.9375 57.7695 34.5078 57.7695 35.2069C57.7695 35.9061 57.1992 36.4764 56.5 36.4764H50.5703C48.8437 36.4764 47.4453 37.8748 47.4453 39.6014C47.4453 41.3281 48.8437 42.7264 50.5703 42.7264H51.8945C51.996 44.3592 53.3398 45.6561 55 45.6561Z" fill="#7956F5"/>
</svg>
